<svg width="27" height="28" viewBox="0 0 27 28" fill="none" xmlns="http://www.w3.org/2000/svg">
<path d="M15.4553 27.0872C15.3445 27.1043 15.2331 27.1201 15.1213 27.1346C15.235 27.1201 15.3463 27.1043 15.4553 27.0872Z" fill="white"/>
<path d="M15.7209 27.0422L15.5625 27.0687L15.7209 27.0422Z" fill="white"/>
<path d="M14.8242 27.1735C14.6943 27.1872 14.5639 27.1993 14.4331 27.2099C14.5639 27.1998 14.6943 27.1876 14.8242 27.1735Z" fill="white"/>
<path d="M15.0785 27.1423L14.8916 27.1652L15.0785 27.1423Z" fill="white"/>
<path d="M16.083 26.9712L15.9446 26.999L16.083 26.9712Z" fill="white"/>
<path d="M16.9822 26.7487L16.8694 26.7781L16.9822 26.7487Z" fill="white"/>
<path d="M16.7098 26.8225L16.5874 26.8529L16.7098 26.8225Z" fill="white"/>
<path d="M16.3545 26.911L16.2236 26.9387L16.3545 26.911Z" fill="white"/>
<path d="M14.4282 27.212L14.2195 27.2267L14.4282 27.212Z" fill="white"/>
<path d="M26.6185 14.0482C26.6185 11.4353 25.838 8.88111 24.3755 6.70859C22.9131 4.53607 20.8345 2.8428 18.4025 1.8429C15.9706 0.843004 13.2945 0.581385 10.7128 1.09113C8.13102 1.60087 5.75953 2.85909 3.8982 4.70666C2.03687 6.55423 0.769281 8.90819 0.25574 11.4708C-0.257801 14.0335 0.00576667 16.6898 1.01311 19.1037C2.02046 21.5177 3.72634 23.581 5.91504 25.0326C8.10374 26.4842 10.6769 27.259 13.3093 27.259C13.3872 27.259 13.4651 27.259 13.5431 27.259V16.972H10.6837V13.6641H13.5431V11.23C13.5431 8.40698 15.2793 6.8708 17.8164 6.8708C18.6727 6.86777 19.5285 6.91112 20.38 7.00066V9.95076H18.6306C17.2507 9.95076 16.9835 10.6021 16.9835 11.5574V13.6641H20.2833L19.8533 16.972H16.9828V26.7486C19.7596 25.9559 22.2013 24.2882 23.9395 21.9972C25.6777 19.7062 26.618 16.9162 26.6185 14.0482Z" fill="white"/>
<path d="M14.189 27.2302C14.0498 27.2388 13.9107 27.2456 13.7715 27.2506C13.9111 27.2461 14.0503 27.2393 14.189 27.2302Z" fill="white"/>
<path d="M13.7652 27.2507L13.5439 27.2552L13.7652 27.2507Z" fill="white"/>
</svg>
