<svg width="103" height="103" viewBox="0 0 103 103" fill="none" xmlns="http://www.w3.org/2000/svg">
<path fill-rule="evenodd" clip-rule="evenodd" d="M35.8358 67.9868C33.0166 67.6067 29.5004 66.894 27.3938 66.007C26.6652 65.7061 26 65.4685 26 64.5181V56.187C26.1584 53.5577 26.6019 51.0869 27.8056 49.0754C29.7855 45.7493 32.3355 44.2129 35.3132 43.516C34.0777 41.9321 33.365 39.9998 33.365 38.0675C33.365 34.9156 34.2045 32.8249 36.2001 30.845C41.3002 25.7291 49.4571 28.0257 51.833 33.6643C52.0072 34.0603 52.1339 34.4246 52.2448 34.7572C52.3556 34.4246 52.4982 34.0603 52.6724 33.6643C55.0324 28.0257 63.2052 25.7291 68.3052 30.845C70.3009 32.8249 71.1404 34.9156 71.1404 38.0675C71.1404 39.9998 70.4118 41.9321 69.1922 43.516C72.1699 44.2129 74.7199 45.7493 76.6998 49.0754C77.8877 51.0869 78.347 53.5577 78.5054 56.187V64.5181C78.5054 65.4685 77.8243 65.7061 77.1116 66.007C75.0367 66.894 71.568 67.5909 68.7646 67.971V63.552C70.5385 63.2986 72.5342 62.9184 74.118 62.4274V56.3295C74.023 54.6981 73.7696 52.7183 72.9301 51.3087C72.1224 49.9465 71.1404 48.9012 69.6832 48.2676C67.7826 47.444 64.9633 47.3015 62.3815 47.3015C62.1123 47.3173 61.8589 47.3331 61.6054 47.3331C61.4471 48.0142 61.2728 48.6477 61.0511 49.2655C60.9719 49.2338 60.8927 49.2179 60.8294 49.1863C60.9561 48.9328 61.0828 48.6477 61.2095 48.3468C61.5421 47.5232 62.0965 45.5275 61.9856 44.4188C61.9381 43.8803 61.8747 43.4051 61.7955 42.9458C64.2822 42.8191 66.753 40.6175 66.753 38.0675C66.753 36.2777 66.4838 35.2007 65.2167 33.9336C62.6825 31.3994 58.0734 32.0963 56.7113 35.3591C56.6638 35.4699 56.6004 35.6125 56.5371 35.7709C56.7588 35.9451 56.9805 36.1193 57.1864 36.3252C54.1137 34.4404 50.3283 34.5038 47.3823 36.2619C47.5723 36.0876 47.7624 35.9293 47.9683 35.7709C47.905 35.6125 47.8416 35.4699 47.7941 35.3591C46.432 32.0963 41.8229 31.3994 39.2887 33.9336C38.0216 35.2007 37.7365 36.2777 37.7365 38.0675C37.7365 40.6492 40.2707 42.8666 42.789 42.9616C42.7099 43.3735 42.6465 43.8169 42.599 44.2763C42.4406 45.9235 42.995 47.6974 43.8186 49.2338C43.7077 49.2655 43.5968 49.313 43.486 49.3605C43.2484 48.7111 43.0583 48.0459 42.8999 47.3331C42.6307 47.3331 42.3772 47.3173 42.1238 47.3015C39.5421 47.3015 36.7228 47.444 34.8222 48.2676C33.365 48.9012 32.383 49.9465 31.5752 51.3087C30.7358 52.7183 30.4824 54.6981 30.3715 56.3295V62.4274C31.987 62.9343 34.0302 63.3144 35.8358 63.5678C35.82 63.6312 35.82 63.6945 35.8042 63.7579L35.8358 67.9868Z" fill="url(#paint0_linear)"/>
<path fill-rule="evenodd" clip-rule="evenodd" d="M58.1356 52.3061C58.1989 52.3219 58.2465 52.3377 58.294 52.3377L58.3098 52.3536C58.3573 52.3536 58.4048 52.3694 58.4682 52.3853H58.484C58.5315 52.3853 58.5791 52.4011 58.6266 52.4169H58.6583C58.7058 52.4328 58.7533 52.4486 58.8008 52.4645H58.8166C58.8642 52.4803 58.9117 52.4803 58.9592 52.4961H58.975C59.0225 52.512 59.0701 52.5278 59.1176 52.5436H59.1334C59.1809 52.5595 59.2285 52.5753 59.276 52.5912H59.2918C59.3393 52.607 59.4027 52.6228 59.4502 52.6387L59.466 52.6545C59.5135 52.6704 59.5611 52.6862 59.6086 52.702C59.6561 52.7179 59.7036 52.7337 59.7511 52.7495H59.767C59.8145 52.7812 59.862 52.7971 59.9095 52.8129H59.9254C59.9729 52.8287 60.0204 52.8446 60.0521 52.8763H60.0679C60.1154 52.8921 60.1629 52.9079 60.2105 52.9396H60.2263C60.2738 52.9555 60.3055 52.9871 60.353 53.003H60.3688C60.4164 53.0346 60.448 53.0505 60.4955 53.0663L60.5114 53.0822C60.5589 53.098 60.5906 53.1297 60.6381 53.1455H60.6539C60.6856 53.1772 60.7331 53.193 60.7806 53.2247H60.7965C60.8282 53.2564 60.8757 53.2722 60.9232 53.3039C60.9549 53.3356 61.0024 53.3514 61.0499 53.3831V53.3989C61.0974 53.4148 61.1291 53.4465 61.1766 53.4781C61.2241 53.5098 61.2716 53.5415 61.3033 53.5573C61.3508 53.589 61.3825 53.6207 61.43 53.6524C61.4617 53.684 61.5092 53.7157 61.5409 53.7474V53.7632C61.5884 53.7791 61.6201 53.8107 61.6518 53.8583H61.6676C61.6993 53.8899 61.731 53.9216 61.7785 53.9533L62.6655 54.8244C64.4711 56.7884 65.0729 58.3565 65.0729 61.0807V68.3824C63.8375 68.81 62.1428 69.2218 61.3508 69.396C59.0225 69.9187 56.2983 70.1721 53.9066 70.1721C50.8498 70.1721 43.6115 69.4911 39.5251 68.3032L39.5092 63.9634C39.5884 63.0922 39.5568 62.2686 39.5409 61.3817C39.5409 59.4493 39.9369 57.5645 41.0139 55.9331C41.0456 55.8698 41.0773 55.8223 41.1248 55.7747L41.1406 55.7431C41.1723 55.6955 41.204 55.648 41.2357 55.6005L41.2673 55.5688C41.299 55.5213 41.3307 55.4738 41.3624 55.4263L41.394 55.3946C41.4257 55.3471 41.4574 55.2996 41.5049 55.2521C41.5366 55.2045 41.5683 55.157 41.6158 55.1254L41.6316 55.0937C41.6633 55.0462 41.7108 54.9986 41.7425 54.967L41.7583 54.9353C41.8059 54.9036 41.8375 54.8561 41.8692 54.8086L41.9009 54.7927C41.9326 54.7611 41.9642 54.7135 41.9959 54.6819L42.0118 54.666C42.0593 54.6185 42.091 54.5868 42.1385 54.5393L42.1543 54.5235C42.186 54.4918 42.2335 54.4443 42.2652 54.4126L42.2969 54.3809C42.3285 54.3493 42.376 54.3176 42.4077 54.2859L42.4394 54.2542C42.4711 54.2225 42.5028 54.1909 42.5503 54.1592V54.1434C42.5978 54.1117 42.6295 54.08 42.677 54.0483L42.7087 54.0325C42.7403 54.0008 42.772 53.9691 42.8195 53.9375L42.8512 53.9058C42.8987 53.8741 42.9304 53.8424 42.9621 53.8266L42.9938 53.7949C43.0254 53.7791 43.0571 53.7474 43.1046 53.7157L43.1363 53.6999C43.168 53.6682 43.2155 53.6524 43.2472 53.6207L43.2789 53.6048C43.3105 53.5732 43.358 53.5573 43.3897 53.5256L43.4372 53.494C43.4689 53.4781 43.5164 53.4465 43.5481 53.4306L43.5956 53.3989C43.6273 53.3831 43.6431 53.3673 43.6748 53.3514L43.7382 53.3039C43.7699 53.2881 43.8015 53.2722 43.8332 53.2564L43.8807 53.2405C43.9282 53.2089 43.9599 53.193 43.9916 53.1772L44.0391 53.1455C44.0866 53.1297 44.1183 53.1138 44.15 53.098L44.2133 53.0663L44.2925 53.0346L44.3717 52.9871L44.4509 52.9555L44.5143 52.9238C44.546 52.9079 44.5776 52.9079 44.6093 52.8921L44.6885 52.8604C44.7043 52.8446 44.736 52.8446 44.7519 52.8287C44.7835 52.8129 44.8152 52.7971 44.8469 52.7971L44.9102 52.7654C44.9419 52.7495 44.9894 52.7495 45.0211 52.7337L45.0845 52.702L45.1637 52.6862C45.1953 52.6704 45.227 52.6545 45.2587 52.6545L45.3379 52.6228L45.4012 52.607C45.4329 52.5912 45.4804 52.5753 45.5121 52.5753L45.5596 52.5595C45.6071 52.5436 45.6388 52.5278 45.6863 52.512L45.7497 52.4961C45.7655 52.4961 45.7972 52.4803 45.8289 52.4803L45.9239 52.4486L46.019 52.4328H46.0348C46.0981 52.4169 46.1457 52.4011 46.209 52.3853H46.2249C46.2882 52.3694 46.3357 52.3536 46.3991 52.3536L46.4149 52.3377C47.983 52.021 49.7094 52.0051 51.515 52.0051C53.384 52.0051 55.9182 51.8784 58.1356 52.3061ZM60.8282 49.1858C60.9549 48.9324 61.0816 48.6473 61.2083 48.3464C61.5409 47.5228 62.0953 45.5271 61.9844 44.4184C61.6835 41.3457 61.0341 39.7935 59.0225 37.782C53.4632 32.1909 43.4372 35.0735 42.5978 44.2758C42.4394 45.9231 42.9938 47.697 43.8174 49.2334C41.5208 50.0094 39.5726 51.4191 37.9254 53.8899C36.6741 55.7906 35.8347 58.2456 35.8505 61.3975C35.8505 62.1736 35.9138 62.9972 35.803 63.7575L35.8505 70.8374C39.3984 72.7063 49.1867 73.8626 53.9066 73.8626C56.6309 73.8626 59.8303 73.5141 62.1586 73.0073C63.5049 72.7063 68.7634 71.4234 68.7634 70.3464V61.0807C68.7634 57.1369 67.6547 54.7611 65.3105 52.2427L64.3444 51.2924C63.299 50.2945 62.1111 49.6293 60.8282 49.1858ZM47.6979 48.4573L47.682 48.4414L47.6662 48.4097L47.6503 48.3939L47.6187 48.3622V48.3464C47.6028 48.3147 47.5711 48.283 47.5553 48.2513L47.5236 48.2038L47.4761 48.1405L47.4444 48.093L47.4128 48.0454L47.3811 47.9979V47.9821L47.3494 47.9346L47.3336 47.9187L47.3177 47.8712H47.3019L47.2702 47.8237V47.8079C47.2544 47.7762 47.2227 47.7445 47.2069 47.697L47.1752 47.6495L47.1435 47.5861L47.1118 47.5228L47.0801 47.4753L47.0643 47.4594L47.0485 47.4277L47.0326 47.3961L47.0168 47.3485L47.001 47.3327L46.9851 47.301L46.9693 47.2693L46.9534 47.2377V47.2218L46.9218 47.1743V47.1585L46.9059 47.1426L46.8901 47.0951L46.8584 47.0318L46.8267 46.9684C46.8109 46.9367 46.7951 46.9051 46.7792 46.8734L46.7634 46.8417L46.7475 46.81L46.7317 46.7783L46.7159 46.7467V46.6992L46.7 46.6675L46.6842 46.6358L46.6683 46.6041L46.6525 46.5724L46.6367 46.5408V46.5249L46.6208 46.4774L46.605 46.4616L46.5891 46.3982L46.5575 46.3349L46.5416 46.2715L46.5258 46.2398L46.51 46.2082V46.1765L46.4941 46.129L46.4783 46.0973V46.0656L46.4624 46.0339L46.4466 45.9864V45.9706L46.4308 45.9231V45.8914H46.4149L46.3991 45.828L46.3832 45.7647V45.7488L46.3674 45.7013V45.6696L46.3516 45.638V45.5904V45.5746L46.3357 45.5271V45.4954L46.3199 45.4637V45.4321V45.4004L46.3041 45.3687V45.337V45.3053L46.2882 45.2737V45.2103C46.2882 45.1786 46.2882 45.1628 46.2882 45.147V45.1311L46.2724 45.1153V45.0836V45.0519V45.0044V44.9886V44.9569V44.9094V44.8935V44.8619V44.8143V44.7985C46.2724 44.7827 46.2724 44.7668 46.2724 44.751V44.7352V44.6876V44.6718C46.2724 44.656 46.2724 44.6243 46.2724 44.6084C46.5416 41.6941 48.2364 39.2233 51.2299 38.7164C53.1622 38.3838 55.047 39.0015 56.4092 40.3795C57.8663 41.8525 58.1039 42.692 58.3098 44.751C58.3098 45.2737 57.9772 46.4774 57.7871 46.9367L57.7554 47.0001V47.0318L57.7396 47.0476V47.0634L57.7238 47.0951V47.111H57.7079L57.6921 47.1585V47.1743C57.6763 47.206 57.6604 47.2218 57.6446 47.2535V47.2693L57.6287 47.301V47.3169L57.6129 47.3327L57.5971 47.3644V47.3802L57.5812 47.4119L57.5654 47.4277L57.5495 47.4594L57.5337 47.4911V47.5069L57.5179 47.5386L57.502 47.5544L57.4862 47.5861V47.602H57.4704L57.4545 47.6495L57.4387 47.6812L57.4228 47.697L57.407 47.7287L57.3912 47.7445V47.7762H57.3753V47.792L57.3595 47.8079V47.8237L57.3436 47.8395L57.3278 47.8554L57.312 47.8871L57.2961 47.9029V47.9187L57.2803 47.9346V47.9504L57.2644 47.9663L57.2486 47.9821L57.2328 48.0138H57.2169V48.0296L57.2011 48.0454V48.0613L57.1694 48.093L57.1536 48.1088V48.1405H57.1377V48.1563L57.1219 48.1722L57.1061 48.188L57.0902 48.2197L57.0744 48.2355L57.0585 48.2513L57.0427 48.2672L57.0269 48.283L57.011 48.3147L56.9952 48.3305L56.9794 48.3464L56.9635 48.3622L56.9477 48.3939L56.9318 48.4097L56.916 48.4256C56.6151 48.7899 56.2508 49.1066 55.7756 49.4709C54.366 50.5796 53.2414 50.5796 51.4833 50.5796C50.5488 50.5796 48.5215 49.5184 47.9513 48.7899C47.8721 48.6948 47.7771 48.584 47.6979 48.4573ZM47.6187 48.3464C47.6028 48.3147 47.5711 48.283 47.5553 48.2513L47.6187 48.3464Z" fill="url(#paint1_linear)"/>
<defs>
<linearGradient id="paint0_linear" x1="49.5826" y1="60.6139" x2="57.0715" y2="36.0273" gradientUnits="userSpaceOnUse">
<stop stop-color="#9900CC"/>
<stop offset="1" stop-color="#00CCFF"/>
</linearGradient>
<linearGradient id="paint1_linear" x1="50.607" y1="66.6845" x2="60.7092" y2="45.299" gradientUnits="userSpaceOnUse">
<stop stop-color="#9900CC"/>
<stop offset="1" stop-color="#00CCFF"/>
</linearGradient>
</defs>
</svg>
