<svg width="27" height="27" viewBox="0 0 27 27" fill="none" xmlns="http://www.w3.org/2000/svg">
<path d="M15.8569 13.2107C15.8569 13.7109 15.7075 14.1998 15.4276 14.6156C15.1477 15.0315 14.7498 15.3556 14.2842 15.547C13.8187 15.7384 13.3065 15.7884 12.8123 15.6909C12.3181 15.5933 11.8642 15.3525 11.5079 14.9988C11.1516 14.6452 10.909 14.1946 10.8107 13.7041C10.7124 13.2135 10.7628 12.7051 10.9556 12.243C11.1485 11.781 11.475 11.386 11.894 11.1082C12.3129 10.8303 12.8055 10.682 13.3093 10.682C13.985 10.682 14.633 10.9484 15.1108 11.4227C15.5885 11.8969 15.8569 12.5401 15.8569 13.2107Z" fill="white"/>
<path d="M19.2675 8.73708C19.1403 8.40998 18.9456 8.11291 18.6958 7.865C18.4461 7.61709 18.1468 7.42382 17.8173 7.29761C17.3629 7.13052 16.8829 7.0422 16.3984 7.03651C15.5926 6.9999 15.3504 6.99231 13.3101 6.99231C11.2698 6.99231 11.0276 6.9999 10.2218 7.03651C9.73726 7.04225 9.25731 7.13057 8.8029 7.29761C8.47326 7.42377 8.17387 7.61702 7.92399 7.86494C7.67411 8.11285 7.47927 8.40993 7.35201 8.73708C7.18371 9.18812 7.09473 9.66451 7.08897 10.1455C7.05208 10.9453 7.04443 11.185 7.04443 13.2109C7.04443 15.2368 7.05208 15.4765 7.08897 16.2763C7.0947 16.7573 7.18368 17.2337 7.35201 17.6847C7.47916 18.0118 7.67387 18.3089 7.92363 18.5568C8.17339 18.8047 8.47267 18.998 8.80221 19.1242C9.25658 19.2914 9.73655 19.3797 10.2211 19.3853C11.0269 19.4219 11.2684 19.4295 13.3094 19.4295C15.3504 19.4295 15.5919 19.4219 16.3977 19.3853C16.8822 19.3797 17.3622 19.2914 17.8166 19.1242C18.1461 18.998 18.4454 18.8047 18.6951 18.5568C18.9449 18.3089 19.1396 18.0118 19.2668 17.6847C19.435 17.2337 19.524 16.7573 19.5298 16.2763C19.5667 15.4765 19.5743 15.2361 19.5743 13.2109C19.5743 11.1857 19.5667 10.9453 19.5298 10.1455C19.5244 9.66454 19.4357 9.18813 19.2675 8.73708ZM13.3101 17.1066C12.5338 17.1066 11.775 16.8781 11.1296 16.45C10.4842 16.022 9.98116 15.4135 9.68411 14.7017C9.38705 13.9899 9.30933 13.2066 9.46076 12.4509C9.6122 11.6952 9.986 11.0011 10.5349 10.4562C11.0838 9.91142 11.7831 9.54039 12.5444 9.39007C13.3057 9.23975 14.0949 9.31691 14.812 9.61176C15.5292 9.90662 16.1421 10.4059 16.5734 11.0466C17.0046 11.6872 17.2348 12.4404 17.2348 13.2109C17.2348 14.2441 16.8213 15.235 16.0853 15.9656C15.3493 16.6961 14.351 17.1066 13.3101 17.1066ZM17.39 10.0722C17.2086 10.0722 17.0313 10.0189 16.8804 9.91882C16.7296 9.81879 16.6121 9.67661 16.5426 9.51026C16.4732 9.34391 16.4551 9.16086 16.4905 8.98426C16.5258 8.80767 16.6132 8.64546 16.7415 8.51814C16.8697 8.39082 17.0331 8.30412 17.2111 8.26899C17.389 8.23387 17.5734 8.25189 17.741 8.3208C17.9086 8.3897 18.0518 8.50638 18.1526 8.65609C18.2534 8.8058 18.3072 8.98182 18.3072 9.16188C18.3072 9.28149 18.2834 9.39993 18.2373 9.51042C18.1911 9.62092 18.1235 9.7213 18.0383 9.80585C17.953 9.89039 17.8518 9.95744 17.7405 10.0031C17.6291 10.0489 17.5098 10.0723 17.3893 10.0722H17.39Z" fill="white"/>
<path d="M13.3093 0C10.6769 0 8.10374 0.774805 5.91504 2.22644C3.72634 3.67807 2.02046 5.74132 1.01311 8.1553C0.00576667 10.5693 -0.257801 13.2255 0.25574 15.7882C0.769281 18.3509 2.03687 20.7048 3.8982 22.5524C5.75953 24.4 8.13102 25.6582 10.7128 26.1679C13.2945 26.6777 15.9706 26.416 18.4025 25.4161C20.8345 24.4163 22.9131 22.723 24.3755 20.5505C25.838 18.3779 26.6185 15.8238 26.6185 13.2109C26.6182 9.70725 25.2158 6.34723 22.7199 3.86978C20.224 1.39234 16.839 0.000366316 13.3093 0V0ZM20.9054 16.3385C20.8929 16.9678 20.7729 17.5905 20.5505 18.18C20.3542 18.6839 20.0539 19.1416 19.669 19.5236C19.2841 19.9057 18.8231 20.2037 18.3154 20.3986C17.7215 20.6193 17.0942 20.7384 16.4602 20.7509C15.6453 20.7875 15.3851 20.7965 13.3093 20.7965C11.2335 20.7965 10.9739 20.7909 10.1597 20.7509C9.52574 20.7384 8.89845 20.6193 8.30455 20.3986C7.79662 20.2039 7.33528 19.9059 6.95014 19.5238C6.56499 19.1418 6.26453 18.684 6.06802 18.18C5.84564 17.5905 5.72564 16.9678 5.71312 16.3385C5.67554 15.5297 5.6665 15.2706 5.6665 13.2109C5.6665 11.1511 5.67554 10.8921 5.71243 10.0833C5.72498 9.45393 5.84498 8.83128 6.06732 8.24178C6.26387 7.73785 6.56426 7.28021 6.94927 6.89817C7.33428 6.51613 7.79542 6.21809 8.30316 6.02316C8.89751 5.80239 9.52527 5.68327 10.1597 5.67089C10.9746 5.63428 11.2349 5.6253 13.3107 5.6253C15.3864 5.6253 15.6467 5.63428 16.4616 5.67158C17.0956 5.68415 17.7229 5.80326 18.3168 6.02385C18.8244 6.21879 19.2855 6.51683 19.6704 6.89888C20.0553 7.28093 20.3555 7.73856 20.5519 8.24247C20.7745 8.83192 20.8948 9.45458 20.9075 10.084C20.9444 10.8928 20.9534 11.1511 20.9534 13.2116C20.9534 15.272 20.9458 15.5297 20.9054 16.3385Z" fill="white"/>
</svg>
