<svg width="103" height="103" viewBox="0 0 103 103" fill="none" xmlns="http://www.w3.org/2000/svg">
<path fill-rule="evenodd" clip-rule="evenodd" d="M47.5836 58.2829V45.4689L56.6249 51.8158L47.5836 58.2829ZM43.7704 61.841C43.7704 63.0431 44.6098 63.9326 45.8089 63.8605C46.5523 63.8124 47.8714 62.7546 48.423 62.3699L59.0472 54.845C60.4621 53.8353 61.9251 53.1861 61.8291 51.7437C61.7572 50.2291 59.4069 49.2434 57.6562 47.8971L52.9556 44.5553C51.3968 43.4254 49.8379 42.3435 48.2551 41.2376C47.6316 40.8049 46.5763 39.7951 45.4971 39.8913C44.322 39.9875 43.7704 40.901 43.7704 42.1031V61.841Z" fill="url(#paint0_linear)"/>
<path fill-rule="evenodd" clip-rule="evenodd" d="M72.1414 35.228C72.2613 35.9492 72.9568 36.7426 73.3405 37.2955C73.7962 37.9206 74.1799 38.6659 74.5876 39.3871C77.2496 43.979 78.1609 50.3259 77.4175 55.7352C76.8179 60.1107 74.8993 64.2458 72.621 67.4193C72.1174 68.1405 71.9016 68.8858 72.3812 69.7993C72.717 70.4725 73.6523 70.9533 74.6355 70.5927C75.4509 70.3042 75.7867 69.6551 76.2424 68.9819C82.3818 60.1107 83.2692 48.2343 78.113 37.9206C77.3935 36.5021 76.4582 35.0837 75.5948 33.8816C74.3717 32.1266 71.7816 33.2085 72.1414 35.228Z" fill="url(#paint1_linear)"/>
<path fill-rule="evenodd" clip-rule="evenodd" d="M24.7765 51.0952C24.7765 45.3494 27.2467 40.0362 29.6929 36.4781C30.0286 35.9733 30.4123 35.5405 30.3404 34.7712C30.2924 34.05 29.9087 33.497 29.453 33.2326C28.9014 32.92 28.0381 32.92 27.4385 33.3047C26.9828 33.5691 26.6711 34.074 26.3353 34.6029C24.8964 36.7907 24.033 38.3534 23.0018 40.9739C19.5483 49.6528 20.6035 60.5194 25.8557 68.3809C26.1914 68.9099 26.5272 69.3666 26.839 69.8234C28.0381 71.5544 30.3644 70.6408 30.3644 68.8618C30.3644 68.0203 29.8607 67.5155 29.4291 66.8904C26.1435 61.9138 24.7765 57.3941 24.7765 51.0952Z" fill="url(#paint2_linear)"/>
<path fill-rule="evenodd" clip-rule="evenodd" d="M33.1945 51.72C33.1945 48.9072 33.914 46.3108 34.9452 44.147C35.4728 43.0171 36.4561 41.5506 36.6 41.214C37.1276 39.9158 36.2403 38.6416 34.9692 38.5935C33.5782 38.5214 33.0026 39.7475 32.475 40.637C28.3021 47.7292 28.446 55.9032 32.451 63.0435C32.9547 63.933 33.5782 65.2072 34.9932 65.1111C36.2642 65.0149 37.0796 63.7167 36.552 62.4906C36.1443 61.5289 35.3769 60.6394 34.8972 59.5335C33.794 56.9851 33.1945 54.8935 33.1945 51.72Z" fill="url(#paint3_linear)"/>
<path fill-rule="evenodd" clip-rule="evenodd" d="M65.7386 40.6615C65.7386 41.2145 66.1703 41.7674 66.4341 42.1281C67.2016 43.2821 67.993 45.0371 68.4247 46.3834C69.1202 48.499 69.4559 51.3599 69.1681 53.8362C68.4487 59.7263 65.9785 61.6015 65.7626 62.9719C65.5948 64.1739 66.5061 65.1115 67.7052 65.1115C69.0242 65.1115 69.6718 63.645 70.1514 62.8276C73.7488 56.7933 73.9167 48.9077 70.9908 42.5608C70.4872 41.479 69.5039 39.6518 68.8084 39.0267C68.2328 38.4978 67.4414 38.4738 66.7219 38.8344C66.0504 39.1469 65.7386 39.6999 65.7386 40.6615Z" fill="url(#paint4_linear)"/>
<defs>
<linearGradient id="paint0_linear" x1="51.8834" y1="59.4431" x2="58.5569" y2="46.8741" gradientUnits="userSpaceOnUse">
<stop stop-color="#9900CC"/>
<stop offset="1" stop-color="#00CCFF"/>
</linearGradient>
<linearGradient id="paint1_linear" x1="76.3155" y1="63.7617" x2="87.6738" y2="56.707" gradientUnits="userSpaceOnUse">
<stop stop-color="#9900CC"/>
<stop offset="1" stop-color="#00CCFF"/>
</linearGradient>
<linearGradient id="paint2_linear" x1="25.206" y1="63.7898" x2="36.5662" y2="56.7424" gradientUnits="userSpaceOnUse">
<stop stop-color="#9900CC"/>
<stop offset="1" stop-color="#00CCFF"/>
</linearGradient>
<linearGradient id="paint3_linear" x1="32.7013" y1="60.2253" x2="41.0482" y2="54.4355" gradientUnits="userSpaceOnUse">
<stop stop-color="#9900CC"/>
<stop offset="1" stop-color="#00CCFF"/>
</linearGradient>
<linearGradient id="paint4_linear" x1="69.0144" y1="60.2218" x2="77.3335" y2="54.5013" gradientUnits="userSpaceOnUse">
<stop stop-color="#9900CC"/>
<stop offset="1" stop-color="#00CCFF"/>
</linearGradient>
</defs>
</svg>
