<svg width="308" height="56" viewBox="0 0 308 56" fill="none" xmlns="http://www.w3.org/2000/svg">
<path d="M100.43 15.774H105.326C105.854 15.774 106.286 15.894 106.622 16.134C106.958 16.374 107.198 16.692 107.342 17.088L112.418 31.128C112.646 31.74 112.874 32.406 113.102 33.126C113.342 33.846 113.564 34.602 113.768 35.394C113.936 34.602 114.128 33.846 114.344 33.126C114.572 32.406 114.794 31.74 115.01 31.128L120.05 17.088C120.17 16.752 120.404 16.452 120.752 16.188C121.1 15.912 121.526 15.774 122.03 15.774H126.962L116.45 42H110.942L100.43 15.774ZM135.793 42H129.673V15.774H135.793V42ZM146.748 32.298V42H140.664V15.774H149.196C151.092 15.774 152.706 15.972 154.038 16.368C155.382 16.752 156.474 17.292 157.314 17.988C158.166 18.684 158.784 19.506 159.168 20.454C159.552 21.402 159.744 22.434 159.744 23.55C159.744 24.402 159.63 25.206 159.402 25.962C159.174 26.718 158.832 27.42 158.376 28.068C157.932 28.704 157.38 29.274 156.72 29.778C156.072 30.282 155.322 30.696 154.47 31.02C154.878 31.224 155.256 31.476 155.604 31.776C155.964 32.076 156.276 32.442 156.54 32.874L162.12 42H156.612C155.592 42 154.86 41.616 154.416 40.848L150.06 33.234C149.868 32.898 149.64 32.658 149.376 32.514C149.124 32.37 148.764 32.298 148.296 32.298H146.748ZM146.748 28.104H149.196C150.024 28.104 150.726 28.002 151.302 27.798C151.89 27.582 152.37 27.288 152.742 26.916C153.114 26.544 153.384 26.112 153.552 25.62C153.72 25.116 153.804 24.576 153.804 24C153.804 22.848 153.426 21.948 152.67 21.3C151.926 20.652 150.768 20.328 149.196 20.328H146.748V28.104ZM182.56 15.774V20.598H175.18V42H169.096V20.598H161.716V15.774H182.56ZM195.974 37.194C196.79 37.194 197.516 37.062 198.152 36.798C198.8 36.522 199.346 36.132 199.79 35.628C200.234 35.124 200.57 34.512 200.798 33.792C201.038 33.06 201.158 32.232 201.158 31.308V15.774H207.242V31.308C207.242 32.916 206.978 34.392 206.45 35.736C205.934 37.08 205.19 38.238 204.218 39.21C203.246 40.182 202.064 40.938 200.672 41.478C199.28 42.018 197.714 42.288 195.974 42.288C194.222 42.288 192.65 42.018 191.258 41.478C189.866 40.938 188.684 40.182 187.712 39.21C186.74 38.238 185.996 37.08 185.48 35.736C184.964 34.392 184.706 32.916 184.706 31.308V15.774H190.79V31.29C190.79 32.214 190.904 33.042 191.132 33.774C191.372 34.494 191.714 35.112 192.158 35.628C192.602 36.132 193.142 36.522 193.778 36.798C194.426 37.062 195.158 37.194 195.974 37.194ZM234.681 42H229.965C229.437 42 228.999 41.88 228.651 41.64C228.315 41.388 228.081 41.07 227.949 40.686L226.401 36.114H216.429L214.881 40.686C214.761 41.022 214.527 41.328 214.179 41.604C213.831 41.868 213.405 42 212.901 42H208.149L218.301 15.774H224.529L234.681 42ZM217.833 31.974H224.997L222.585 24.792C222.429 24.336 222.243 23.802 222.027 23.19C221.823 22.566 221.619 21.894 221.415 21.174C221.223 21.906 221.025 22.584 220.821 23.208C220.617 23.832 220.425 24.372 220.245 24.828L217.833 31.974ZM242.9 37.14H252.62V42H236.816V15.774H242.9V37.14ZM272.368 15.774V20.454H261.604V27.096H270.568V31.794H261.604V42H255.484V15.774H272.368ZM282.183 42H276.063V15.774H282.183V42ZM306.099 15.774V20.598H298.719V42H292.635V20.598H285.255V15.774H306.099Z" fill="white"/>
<path fill-rule="evenodd" clip-rule="evenodd" d="M9.98746 42.0301V11.3133C9.98746 9.96855 11.9122 8.53837 13.7301 8.53837H14.6283C16.8525 8.53837 18.542 10.118 18.542 11.847V21.1965H24.0811L20.6807 12.8076C20.3813 12.0178 20.0819 11.228 19.7611 10.4168C19.4403 9.62701 19.1836 8.83721 18.9698 8.00472C18.7559 7.17223 18.649 6.46781 18.649 5.87013C18.649 4.93091 18.927 4.01303 19.5044 3.1165C20.0605 2.19863 20.8304 1.45152 21.8142 0.875183C22.8193 0.298843 23.8886 0 25.0649 0C27.3105 0 28.8717 0.640378 29.7058 1.94248C30.5398 3.24458 31.4808 5.40052 32.5074 8.45299L37.0627 21.1965H50.1512L55.3267 7.10819C56.2677 4.52534 57.1659 2.68959 58.0642 1.62229C58.9624 0.554994 60.3311 0 62.149 0C63.8813 0 65.3355 0.57634 66.5332 1.75037C67.7522 2.90305 68.351 4.24784 68.351 5.7634C68.351 6.36108 68.2441 7.04415 68.0302 7.8553C67.8164 8.6451 67.5811 9.39221 67.2817 10.0966C67.0037 10.7797 66.6829 11.5695 66.3193 12.466L62.7906 21.1965H68.2655V12.5087C68.2655 9.92585 69.6556 8.53837 73.0988 8.53837C75.323 8.53837 77.0125 10.1607 77.0125 12.1031V41.2403C77.0125 46.0005 68.2655 46.0858 68.2655 41.1122V30.4393C67.7204 30.4393 67.3556 30.4768 67.0152 30.5118C66.7815 30.5358 66.5592 30.5587 66.2979 30.5674C65.9954 30.5674 65.7597 30.5407 65.5033 30.5117C65.198 30.4771 64.8634 30.4393 64.3518 30.4393C63.8616 30.4393 63.5901 30.4757 63.3366 30.5097C63.1146 30.5394 62.9063 30.5674 62.5767 30.5674C62.3215 30.5586 62.1243 30.5353 61.9179 30.511C61.6227 30.4763 61.3089 30.4393 60.7802 30.4393C60.2865 30.4393 60.0147 30.4762 59.763 30.5104C59.5458 30.5399 59.3435 30.5674 59.0266 30.5674L53.295 44.7411C52.9314 45.6589 52.4609 46.833 51.8621 48.2631C51.2847 49.6933 50.6431 50.8887 49.9373 51.9133C49.2316 52.9165 48.3333 53.7063 47.3068 54.2613C46.2589 54.8163 44.9971 55.1152 43.5 55.1152C41.5752 55.1152 40.0568 54.6669 38.9019 53.7917C37.7684 52.9165 36.913 51.956 36.3783 50.91C35.8223 49.8641 34.9027 47.8149 33.5981 44.7411L27.8237 30.4393H27.4602C26.9734 30.4393 26.7083 30.4752 26.4588 30.509C26.2369 30.539 26.0274 30.5674 25.6851 30.5674C25.4293 30.5586 25.2353 30.5352 25.0327 30.5108C24.744 30.4761 24.4378 30.4393 23.91 30.4393C23.4499 30.4393 23.1657 30.4734 22.908 30.5044C22.6267 30.5383 22.3768 30.5683 21.9639 30.546C19.9708 30.4267 19.8021 30.4556 19.5448 30.4998C19.3879 30.5267 19.1981 30.5593 18.542 30.5674V41.4965C18.542 46.0432 9.98746 45.5522 9.98746 42.0301ZM46.7294 30.5033L40.3776 30.4606L43.5 39.2552L46.7294 30.5033ZM0 35.1781V18.1654C0 16.7139 1.94617 15.2623 3.91372 15.2623C6.75811 15.2623 8.55457 16.6712 8.55457 18.571V34.7725C8.55457 36.5015 6.71534 38.0811 4.44838 38.0811C1.79646 38.0811 0 36.6936 0 35.1781ZM78.4454 35.1781V18.1654C78.4454 16.7565 80.4558 15.2623 82.3591 15.2623C85.2035 15.2623 87 16.6285 87 18.2935V35.05C87 36.6083 85.0325 38.0811 82.9152 38.0811C80.4344 38.0811 78.4454 36.779 78.4454 35.1781ZM29.6416 5.1445C30.1549 6.38256 30.6254 7.66332 31.0531 8.94407L43.4786 43.7593L56.781 7.64197C57.337 6.12641 58.2139 3.8424 59.2404 2.60433C59.9462 1.7505 61.0797 1.53704 62.149 1.53704C63.4536 1.53704 64.5229 1.94261 65.4639 2.86048C66.3193 3.67163 66.8112 4.5895 66.8112 5.76353C66.8112 6.31852 66.7043 6.91621 66.5546 7.44986C66.3621 8.13293 66.1482 8.83735 65.8702 9.49907C65.6044 10.1127 65.3514 10.7393 65.1013 11.3586C65.0295 11.5364 64.958 11.7137 64.8864 11.8898L51.8621 44.1649L50.4506 47.6869C49.9801 48.8396 49.4027 49.9923 48.6755 51.0383C48.1195 51.8281 47.4351 52.4471 46.5797 52.9167C45.6387 53.4076 44.5479 53.5784 43.5 53.5784C42.2382 53.5784 40.8695 53.365 39.8215 52.5752C38.9875 51.9348 38.2176 51.145 37.7257 50.2058C37.3621 49.48 36.9985 48.7115 36.6777 47.9644C36.2687 47.0724 35.8812 46.1697 35.4923 45.2638C35.3322 44.8907 35.1718 44.5171 35.0096 44.1435L22.1136 12.2313C22.0302 12.0173 21.9468 11.8017 21.863 11.5848C21.6457 11.023 21.4254 10.4531 21.194 9.8833V9.86195C20.8945 9.11484 20.6593 8.36773 20.4454 7.62063C20.3171 7.06563 20.1888 6.4466 20.1888 5.87026C20.1888 5.16584 20.4454 4.50412 20.809 3.90643C21.2581 3.18067 21.8569 2.62568 22.5841 2.19876C23.354 1.7505 24.1667 1.53704 25.0649 1.53704C26.1984 1.53704 27.7382 1.7078 28.4226 2.7751C28.8931 3.50086 29.2994 4.3547 29.6416 5.1445Z" fill="url(#paint0_linear)"/>
<defs>
<linearGradient id="paint0_linear" x1="39.0758" y1="44.9528" x2="47.8927" y2="10.1542" gradientUnits="userSpaceOnUse">
<stop stop-color="#9900CC"/>
<stop offset="1" stop-color="#00CCFF"/>
</linearGradient>
</defs>
</svg>
