<svg width="103" height="103" viewBox="0 0 103 103" fill="none" xmlns="http://www.w3.org/2000/svg">
<path d="M37.1771 20.0019C36.7913 20.045 36.4321 20.2258 36.1615 20.5132L24.4948 32.5683C24.1814 32.8885 24.0035 33.3239 24 33.7793V76.8335C24 79.6659 26.2588 82 29 82H65.6667C68.4078 82 70.6667 79.6659 70.6667 76.8335V71.667C70.6698 71.4388 70.629 71.2122 70.5466 71.0004C70.4643 70.7887 70.342 70.5959 70.1869 70.4334C70.0319 70.2709 69.8471 70.1418 69.6433 70.0537C69.4395 69.9656 69.2209 69.9203 69 69.9203C68.7791 69.9203 68.5605 69.9656 68.3567 70.0537C68.1529 70.1418 67.9681 70.2709 67.8131 70.4334C67.658 70.5959 67.5357 70.7887 67.4534 71.0004C67.371 71.2122 67.3302 71.4388 67.3333 71.667V76.8335C67.3333 77.8174 66.6188 78.5557 65.6667 78.5557H29C28.0478 78.5557 27.3333 77.8174 27.3333 76.8335V36.3625H38.1667C38.6087 36.3625 39.0326 36.181 39.3451 35.858C39.6577 35.5351 39.8333 35.0971 39.8333 34.6403V23.4462H65.6667C66.6188 23.4462 67.3333 24.1845 67.3333 25.1684V33.9676C65.8913 34.9495 64.8001 36.2305 64.0521 37.681C63.6235 37.0668 63.1692 36.5145 62.6979 36.0127C62.5436 35.8443 62.3579 35.7098 62.1521 35.6173C61.9463 35.5248 61.7245 35.4763 61.5 35.4745C61.1647 35.4664 60.8348 35.5629 60.5535 35.7516C60.2721 35.9402 60.0524 36.2122 59.923 36.5319C59.7936 36.8516 59.7606 37.2042 59.8282 37.5437C59.8958 37.8831 60.061 38.1936 60.3021 38.4345C61.6208 39.8387 62.6428 41.3211 63.0104 43.7625C62.2854 43.4896 61.527 43.3319 60.7188 43.3319C55.0564 43.3319 50.6667 48.6394 50.6667 54.9027C50.6667 61.1661 55.0564 66.5005 60.7188 66.5005C61.9676 66.5005 63.406 66.3504 64.8333 65.7201C66.2606 66.3504 67.6991 66.5005 68.9479 66.5005C74.6103 66.5005 79 61.1661 79 54.9027C79 49.2924 75.4706 44.4692 70.6667 43.5203V41.9596C71.4306 41.7495 72.1794 41.4782 72.9062 41.0985C75.6186 39.6813 77.4625 37.2783 78.1146 34.5865C78.2185 34.1515 78.1542 33.6918 77.9354 33.3049C77.7166 32.9181 77.3605 32.6345 76.9427 32.5145C75.5723 32.119 74.1233 31.9863 72.6719 32.1109C71.9987 32.1687 71.3325 32.2866 70.6667 32.4607V25.1684C70.6667 22.3359 68.4078 20.0019 65.6667 20.0019H37.3333C37.2813 19.9994 37.2291 19.9994 37.1771 20.0019ZM36.5 25.0069V32.9182H28.8438L36.5 25.0069ZM72.9583 35.5283C73.3015 35.4991 73.6315 35.6236 73.974 35.636C73.3693 36.5657 72.5602 37.4225 71.3958 38.0309C70.1234 38.6957 68.7434 38.8569 67.3594 38.8112C67.9613 37.8773 68.7491 37.0236 69.9115 36.4163C70.8679 35.9166 71.9115 35.6175 72.9583 35.5283ZM31.3438 39.8068C31.1248 39.8174 30.9101 39.8724 30.7118 39.9687C30.5135 40.0651 30.3354 40.2008 30.1879 40.3682C30.0404 40.5356 29.9262 40.7315 29.8519 40.9445C29.7776 41.1575 29.7446 41.3836 29.7549 41.6098C29.7651 41.8359 29.8184 42.0578 29.9117 42.2627C30.0049 42.4676 30.1363 42.6516 30.2984 42.804C30.4605 42.9564 30.65 43.0744 30.8561 43.1511C31.0623 43.2278 31.2811 43.2618 31.5 43.2512H51.5C51.7209 43.2544 51.9401 43.2122 52.1451 43.1272C52.35 43.0421 52.5366 42.9157 52.6938 42.7555C52.8511 42.5952 52.976 42.4043 53.0613 42.1937C53.1465 41.9832 53.1904 41.7572 53.1904 41.529C53.1904 41.3008 53.1465 41.0748 53.0613 40.8643C52.976 40.6537 52.8511 40.4628 52.6938 40.3026C52.5366 40.1423 52.35 40.016 52.1451 39.9309C51.9401 39.8458 51.7209 39.8036 51.5 39.8068H31.5C31.4479 39.8043 31.3958 39.8043 31.3438 39.8068ZM66.0833 42.2825C66.4993 42.338 66.9116 42.3797 67.3333 42.3901V43.5472C67.0032 43.6357 66.6833 43.7648 66.3698 43.897C66.3028 43.332 66.2035 42.7952 66.0833 42.2825ZM60.7188 46.7762C61.7226 46.7762 62.9659 47.2923 63.7396 47.9871C64.0429 48.2597 64.4314 48.4098 64.8333 48.4098C65.2353 48.4098 65.6237 48.2597 65.9271 47.9871C66.7008 47.2923 67.9441 46.7762 68.9479 46.7762C72.563 46.7762 75.6667 50.2713 75.6667 54.9027C75.6667 59.5341 72.563 63.0561 68.9479 63.0561C67.4734 63.0561 66.4506 62.9732 65.7188 62.491C65.4534 62.3191 65.1465 62.228 64.8333 62.228C64.5201 62.228 64.2133 62.3191 63.9479 62.491C63.2161 62.9732 62.1932 63.0561 60.7188 63.0561C57.1037 63.0561 54 59.5341 54 54.9027C54 50.2713 57.1037 46.7762 60.7188 46.7762ZM31.3438 47.5566C31.1248 47.5672 30.9101 47.6222 30.7118 47.7185C30.5135 47.8148 30.3354 47.9506 30.1879 48.118C30.0404 48.2854 29.9262 48.4812 29.8519 48.6942C29.7776 48.9073 29.7446 49.1333 29.7549 49.3595C29.7651 49.5857 29.8184 49.8076 29.9117 50.0125C30.0049 50.2174 30.1363 50.4013 30.2984 50.5537C30.4605 50.7062 30.65 50.8241 30.8561 50.9008C31.0623 50.9776 31.2811 51.0116 31.5 51.0009H48.1667C48.3875 51.0042 48.6068 50.962 48.8117 50.8769C49.0167 50.7918 49.2032 50.6655 49.3605 50.5052C49.5178 50.345 49.6427 50.1541 49.7279 49.9435C49.8132 49.733 49.8571 49.507 49.8571 49.2788C49.8571 49.0505 49.8132 48.8246 49.7279 48.614C49.6427 48.4035 49.5178 48.2126 49.3605 48.0523C49.2032 47.8921 49.0167 47.7657 48.8117 47.6806C48.6068 47.5955 48.3875 47.5534 48.1667 47.5566H31.5C31.4479 47.5541 31.3958 47.5541 31.3438 47.5566ZM31.3438 54.4453C31.1248 54.4558 30.9101 54.5109 30.7118 54.6072C30.5135 54.7035 30.3354 54.8392 30.1879 55.0067C30.0404 55.1741 29.9262 55.3699 29.8519 55.5829C29.7776 55.7959 29.7446 56.022 29.7549 56.2482C29.7651 56.4744 29.8184 56.6963 29.9117 56.9012C30.0049 57.1061 30.1363 57.29 30.2984 57.4424C30.4605 57.5949 30.65 57.7128 30.8561 57.7895C31.0623 57.8663 31.2811 57.9003 31.5 57.8896H46.5C46.7209 57.8929 46.9401 57.8507 47.1451 57.7656C47.35 57.6805 47.5366 57.5542 47.6938 57.3939C47.8511 57.2337 47.976 57.0427 48.0613 56.8322C48.1465 56.6216 48.1904 56.3957 48.1904 56.1675C48.1904 55.9392 48.1465 55.7133 48.0613 55.5027C47.976 55.2922 47.8511 55.1012 47.6938 54.941C47.5366 54.7808 47.35 54.6544 47.1451 54.5693C46.9401 54.4842 46.7209 54.4421 46.5 54.4453H31.5C31.4479 54.4428 31.3958 54.4428 31.3438 54.4453ZM31.3438 62.195C31.1248 62.2056 30.9101 62.2606 30.7118 62.3569C30.5135 62.4533 30.3354 62.589 30.1879 62.7564C30.0404 62.9239 29.9262 63.1197 29.8519 63.3327C29.7776 63.5457 29.7446 63.7718 29.7549 63.998C29.7651 64.2241 29.8184 64.446 29.9117 64.6509C30.0049 64.8558 30.1363 65.0398 30.2984 65.1922C30.4605 65.3446 30.65 65.4626 30.8561 65.5393C31.0623 65.616 31.2811 65.65 31.5 65.6394H48.1667C48.3875 65.6426 48.6068 65.6005 48.8117 65.5154C49.0167 65.4303 49.2032 65.3039 49.3605 65.1437C49.5178 64.9834 49.6427 64.7925 49.7279 64.582C49.8132 64.3714 49.8571 64.1454 49.8571 63.9172C49.8571 63.689 49.8132 63.463 49.7279 63.2525C49.6427 63.0419 49.5178 62.851 49.3605 62.6908C49.2032 62.5305 49.0167 62.4042 48.8117 62.3191C48.6068 62.234 48.3875 62.1918 48.1667 62.195H31.5C31.4479 62.1925 31.3958 62.1925 31.3438 62.195Z" fill="url(#paint0_linear)"/>
<defs>
<linearGradient id="paint0_linear" x1="48.7031" y1="70.5682" x2="64.3121" y2="35.947" gradientUnits="userSpaceOnUse">
<stop stop-color="#9900CC"/>
<stop offset="1" stop-color="#00CCFF"/>
</linearGradient>
</defs>
</svg>
