<svg width="103" height="103" viewBox="0 0 103 103" fill="none" xmlns="http://www.w3.org/2000/svg">
<path fill-rule="evenodd" clip-rule="evenodd" d="M43.7489 47.1623C42.0537 47.186 40.2152 47.257 38.6393 47.9438C37.9469 48.2516 37.3022 48.6542 36.7053 49.1278C34.9861 50.4776 33.9117 52.4668 32.7178 54.2192C32.0971 55.1428 31.5001 56.09 30.8793 57.0136C30.2824 57.9371 29.7333 58.8844 29.1363 59.8079C28.4917 60.7789 27.8231 61.7024 27.2501 62.7207C26.3427 64.3073 25.6264 66.2729 26.7487 67.9542C27.1307 68.5226 27.5843 69.0672 28.0619 69.5645C28.5872 70.1802 29.1602 70.7486 29.7333 71.3169C30.7122 72.2641 31.7389 73.1877 32.7178 74.1586C33.5535 74.9875 34.246 76.0294 35.5592 76.0294C36.5381 76.0294 37.5887 74.9875 37.5887 74.0165C37.5887 72.9272 36.9679 72.4536 36.2755 71.7432L32.4552 67.9542C32.2642 67.7648 32.0254 67.5516 31.8105 67.3385C30.9748 66.5333 30.2347 65.6098 31.0942 64.4968L35.7263 58.174C36.0128 57.7714 36.2994 57.4162 36.5859 57.0373C37.0395 56.4452 37.8036 55.9953 38.5677 56.2321C38.9974 56.3742 39.284 56.7057 39.4511 57.1083C39.4989 57.2504 39.5227 57.3925 39.5466 57.5346C39.5944 57.7477 39.6182 57.9608 39.6421 58.1503C39.7137 58.6949 39.7615 59.2159 39.8093 59.7369C39.8331 60.2342 39.8809 60.7078 39.9048 61.2051C39.9286 61.5367 39.9525 61.8919 40.0003 62.2234C40.2152 63.9284 40.2152 65.6808 40.43 67.3859L40.8837 72.5483C40.9792 74.8691 41.3851 77.1661 41.5045 79.4869C41.5284 79.8657 41.5761 80.1973 41.5523 80.5762C41.5045 81.405 41.1225 81.9734 40.239 81.9734C39.666 81.9734 39.1168 81.8313 38.7587 81.3577C38.4722 80.9314 38.4005 80.3867 38.3766 79.8894C38.3766 79.5105 38.4005 79.1316 38.4005 78.7764C38.4005 78.6343 38.3766 78.3265 38.305 78.2081C38.2811 78.2081 38.2573 78.2081 38.2334 78.2318L37.8514 78.4212C36.753 79.0132 35.5831 79.2264 34.3415 78.9185C32.3119 78.4212 30.6167 76.6451 29.2796 75.1296L27.2739 73.093C27.2501 73.093 27.2501 73.0693 27.2262 73.0456C27.2023 73.0219 27.1784 72.9983 27.1546 72.9746L24.7908 70.5591C23.7163 69.304 23 67.6464 23 65.9887C23 64.8283 23.573 63.0286 24.1222 62.0103C24.3371 61.584 24.552 61.1814 24.7908 60.7789C25.125 60.2342 25.4593 59.6895 25.7936 59.1449C26.6293 57.7951 27.465 56.4452 28.3484 55.1191C29.2318 53.7693 30.1392 52.3958 31.0465 51.0697C31.4285 50.525 31.7867 49.9803 32.1687 49.4593C32.4313 49.1041 32.7178 48.7252 33.0044 48.37C33.7923 47.4228 34.6996 46.665 35.7263 46.0256C37.3977 44.96 39.3317 44.1311 41.3374 44.1311H61.7043C63.8054 44.1311 65.7394 44.9836 67.4586 46.1203C67.96 46.4519 68.3898 46.8071 68.8434 47.186C69.0822 47.3754 69.3209 47.5886 69.5358 47.8017C69.7507 48.0148 69.9417 48.2753 70.1566 48.5121C71.2788 49.8856 72.21 51.4249 73.2129 52.9168L77.1048 59.0502C77.7495 60.0921 78.4896 61.063 79.0149 62.176C80.0177 64.331 80.4236 66.486 79.4208 68.7357C79.0866 69.4698 78.4896 70.2276 77.9882 70.8433C77.2958 71.6721 76.5317 72.4536 75.7916 73.2114C75.0991 73.9218 74.4067 74.5849 73.6904 75.2716C73.1174 75.8163 72.5443 76.361 71.9951 76.9056C71.1356 77.7345 70.1805 78.4923 69.0344 78.8475C67.96 79.1553 66.9333 79.0843 65.8827 78.7291C65.7394 78.6817 65.5962 78.6343 65.4529 78.5633C65.3335 78.5159 65.2141 78.4449 65.0948 78.3738C65.047 78.3502 64.856 78.2318 64.7844 78.1844C64.6889 78.4922 64.665 79.0843 64.6411 79.3211C64.6172 79.7 64.6172 80.1026 64.5695 80.4815C64.5456 80.9314 64.3307 81.3577 63.9725 81.6418C63.6622 81.9023 63.2562 82.0207 62.8503 81.997C62.2295 81.9497 61.752 81.5708 61.5371 81.0261C61.4177 80.7656 61.5132 79.4869 61.5371 79.179C61.6087 78.0186 61.7043 76.8819 61.7998 75.7453C61.8953 74.7033 61.9908 73.685 62.0863 72.643C62.1579 72.0037 62.2295 71.3643 62.2773 70.7249L62.6116 67.2911C62.6593 66.7228 62.731 66.1781 62.7548 65.6098L63.0414 62.1287V62.105C63.1369 61.5367 63.1846 60.9446 63.2324 60.3526C63.2801 59.8079 63.3518 59.2396 63.3756 58.6713C63.3995 58.0792 63.495 57.4162 63.7815 56.9189C63.9964 56.54 64.2829 56.2558 64.7127 56.1848C65.429 56.0427 66.0976 56.5873 66.5035 57.1083L71.9951 64.5678C72.2339 64.8757 72.3533 65.2072 72.3055 65.5861C72.2339 66.5333 71.2072 67.3385 70.5625 67.9542L66.7661 71.7432C66.0498 72.4536 65.429 72.9272 65.429 74.0165C65.429 74.9875 66.5035 76.0294 67.4824 76.0294C68.7957 76.0294 69.5358 74.9401 70.3954 74.1113C72.019 72.4773 73.7143 70.9143 75.2901 69.233C76.2452 68.2147 76.9376 67.0307 76.8421 65.6098C76.7705 64.6152 76.3407 63.6443 75.8393 62.7917C75.2424 61.7261 74.5022 60.7315 73.8575 59.7132L68.4136 51.3775C67.6018 50.1935 66.6468 49.1752 65.4052 48.4411C63.5666 47.3754 61.3461 47.186 59.2688 47.1623C59.2449 47.2097 59.2449 47.2333 59.2211 47.2807C59.1733 47.4228 59.1256 47.5886 59.0539 47.7543C58.8629 48.2516 58.6719 48.7489 58.457 49.2699C57.884 50.7381 57.2632 52.2063 56.6663 53.6746C56.0932 55.0244 55.544 56.3742 54.9471 57.724C54.7322 58.2213 54.5173 58.7186 54.3025 59.2159C54.2069 59.4527 54.1114 59.6659 53.9921 59.879C54.3502 59.95 54.7561 60.0921 55.0426 60.2105C55.5202 60.4237 55.7351 60.6841 55.7351 61.2288C55.7351 61.584 55.544 62.1524 55.4485 62.4839C55.2337 63.0996 54.9949 63.6916 54.7561 64.2837C54.5651 64.781 54.3502 65.3019 54.1353 65.7992C53.9921 66.1781 53.8249 66.557 53.7055 66.9359C53.4906 67.4806 53.1802 68.3805 52.5595 68.5699C52.1535 68.6883 51.7238 68.5462 51.3417 68.4278C51.0791 68.3331 50.8164 68.2384 50.5538 68.1437C50.2434 68.0016 49.9091 67.8832 49.5749 67.7884C49.0734 67.6227 48.5243 67.4332 48.0467 67.2201C47.7602 67.078 47.4498 66.9122 47.3304 66.6044C47.1872 66.2492 47.3304 65.8229 47.4498 65.4914C47.5453 65.2309 47.6647 64.9467 47.7602 64.6862C47.9035 64.331 48.0467 63.9758 48.1661 63.6206C48.4288 62.9338 48.7153 62.2471 49.0018 61.5603C49.1212 61.3235 49.2645 60.9683 49.2883 60.6841C49.2883 60.471 49.2167 60.2579 49.1451 60.0684C48.9779 59.6659 48.8108 59.287 48.6437 58.8844L45.6829 51.8511C45.5397 51.5196 45.3964 51.2117 45.2532 50.9039C45.0621 50.4303 44.8473 49.9803 44.6324 49.5067C44.4413 49.0331 44.2265 48.5595 44.0354 48.0622C43.9399 47.8017 43.8205 47.4701 43.7489 47.1623ZM47.1155 47.1623L51.6283 57.4635C51.6521 57.3688 51.6999 57.2741 51.7238 57.203C51.8909 56.7768 52.058 56.3505 52.2491 55.9243C52.7266 54.7402 53.228 53.5798 53.7294 52.4195C54.2308 51.2117 54.7561 50.0277 55.2575 48.8436C55.4247 48.4174 55.6157 47.9911 55.7828 47.5649C55.8306 47.4465 55.8783 47.3044 55.9261 47.1623H47.1155ZM34.2937 65.373L37.4216 68.4278L36.7769 62.0576L35.6308 63.5732C35.201 64.1889 34.7235 64.781 34.2937 65.373ZM65.62 68.4752L68.724 65.3493L66.6706 62.6023C66.5512 62.4129 66.3841 62.1524 66.217 61.9392C66.1931 62.0813 66.1931 62.2234 66.1692 62.2944C66.1215 62.697 66.0976 63.0759 66.0498 63.4785C66.0021 64.0705 65.9543 64.6625 65.9304 65.2546C65.8588 66.3439 65.7156 67.4095 65.62 68.4752ZM40.5494 30.3251C40.5494 28.9042 40.9792 27.436 41.6239 26.1809C43.3191 22.8419 46.5186 20.5212 50.2912 20.0712C52.3446 19.8344 54.4457 20.1896 56.3081 21.1132C59.6747 22.7945 62.0147 25.9678 62.4683 29.7094C62.7071 31.7696 62.3489 33.8299 61.4177 35.677C59.6509 39.1581 56.3081 41.5025 52.3446 41.8104C49.1451 42.0472 46.0411 40.8868 43.7489 38.6371C41.2896 36.198 40.5494 33.7115 40.5494 30.3251ZM43.6057 30.9171C43.6057 31.9354 43.9399 33.3089 44.3458 34.2325C45.1338 35.9138 46.6141 37.382 48.3571 38.1162C49.8136 38.7319 51.4134 38.945 52.9654 38.6371C54.4696 38.353 55.7828 37.6425 56.905 36.6242C58.8629 34.8482 59.7225 32.2906 59.3166 29.7094C58.8868 27.0808 57.2154 24.8548 54.7561 23.7891C51.294 22.2499 47.1155 23.3629 45.0144 26.4888C44.1548 27.7676 43.6057 29.3779 43.6057 30.9171Z" fill="url(#paint0_linear)"/>
<defs>
<linearGradient id="paint0_linear" x1="48.6014" y1="70.5682" x2="63.8402" y2="35.539" gradientUnits="userSpaceOnUse">
<stop stop-color="#9900CC"/>
<stop offset="1" stop-color="#00CCFF"/>
</linearGradient>
</defs>
</svg>
