<svg width="26" height="27" viewBox="0 0 26 27" fill="none" xmlns="http://www.w3.org/2000/svg">
<path d="M13 0.674683C10.4288 0.674683 7.91543 1.44599 5.77759 2.89106C3.63975 4.33613 1.97351 6.39007 0.989572 8.79314C0.00563267 11.1962 -0.251811 13.8405 0.249797 16.3916C0.751405 18.9426 1.98953 21.286 3.80762 23.1252C5.6257 24.9644 7.94208 26.217 10.4638 26.7244C12.9856 27.2318 15.5994 26.9714 17.9749 25.976C20.3503 24.9806 22.3806 23.295 23.8091 21.1323C25.2376 18.9696 26 16.427 26 13.8259C25.9996 10.3381 24.6299 6.99324 22.192 4.52698C19.7541 2.06073 16.4477 0.675047 13 0.674683V0.674683ZM18.9358 10.929C18.9417 11.0583 18.9447 11.1882 18.9447 11.3189C18.9523 12.4489 18.7378 13.5692 18.3139 14.6147C17.8899 15.6601 17.2648 16.61 16.4748 17.409C15.6849 18.2081 14.746 18.8404 13.7125 19.2692C12.679 19.698 11.5715 19.9149 10.4545 19.9071C8.83302 19.9091 7.24522 19.4388 5.8808 18.5525C6.11699 18.5806 6.35462 18.5946 6.59244 18.5945C7.936 18.5966 9.24122 18.1415 10.2982 17.3024C9.67563 17.2904 9.07235 17.0818 8.5727 16.7059C8.07304 16.3301 7.70199 15.8056 7.5114 15.2059C7.95866 15.2934 8.41981 15.2758 8.85925 15.1544C8.18433 15.0165 7.57728 14.6468 7.14098 14.1079C6.70469 13.5691 6.46599 12.8942 6.46534 12.1976C6.46534 12.1839 6.46534 12.1715 6.46534 12.1591C6.87943 12.3925 7.34281 12.5219 7.81659 12.5366C7.1848 12.1097 6.73758 11.4553 6.56597 10.7066C6.39436 9.95788 6.51126 9.17114 6.89287 8.50655C7.64217 9.43916 8.57699 10.2019 9.63662 10.7453C10.6962 11.2887 11.857 11.6005 13.0435 11.6606C12.8947 11.0134 12.961 10.3346 13.2322 9.72945C13.5034 9.12426 13.9643 8.62644 14.5435 8.31313C15.1227 7.99982 15.7879 7.88851 16.4361 7.99645C17.0842 8.10439 17.679 8.42555 18.1284 8.91017C18.7969 8.7743 19.4376 8.52384 20.0227 8.16962C19.7997 8.86866 19.3333 9.46195 18.7102 9.83913C19.3017 9.76839 19.8793 9.60823 20.4237 9.364C20.0233 9.97033 19.5192 10.4996 18.9352 10.9269L18.9358 10.929Z" fill="white"/>
</svg>
